<?xml version="1.0" encoding="utf-8"?>
<!-- Generator: Adobe Illustrator 27.2.0, SVG Export Plug-In . SVG Version: 6.00 Build 0)  -->
<svg version="1.1" id="Слой_1" xmlns="http://www.w3.org/2000/svg" xmlns:xlink="http://www.w3.org/1999/xlink" x="0px" y="0px"
	 viewBox="0 0 288.4 259.6" style="enable-background:new 0 0 288.4 259.6;" xml:space="preserve">
<style type="text/css">
	.st0{fill:#fff;}
</style>
<g>
	<path class="st0" d="M283.6,205.6L176.1,19.4l-0.1-0.1c-3.1-5.8-7.8-10.9-13.9-14.5C145-5.1,122.9,0.8,113,18L4.8,205.4
		C1.6,211,0,217.2,0,223.3c0,12.4,6.5,24.5,18,31.2c5.1,2.9,10.6,4.5,16,4.8c1.1,0.1,2.1,0.2,3.2,0.2h213c6.8,0.4,13.8-1.1,20.1-4.8
		C287.6,244.8,293.5,222.8,283.6,205.6z M98.1,187.9l46.1-79.8l46.1,79.8H98.1z"/>
</g>
</svg>
