<?xml version="1.0" encoding="utf-8"?>
<!-- Generator: Adobe Illustrator 27.2.0, SVG Export Plug-In . SVG Version: 6.00 Build 0)  -->
<svg version="1.1" id="Слой_1" xmlns="http://www.w3.org/2000/svg" xmlns:xlink="http://www.w3.org/1999/xlink" x="0px" y="0px"
	 viewBox="0 0 1134 288" style="enable-background:new 0 0 1134 288;" xml:space="preserve">
<style type="text/css">
	.st0{fill:#655f76;}
	.st1{fill:none;}
</style>
<path class="st0" d="M504,36v215.66c0,12.55-6.54,24.75-18.25,31.47c-5.69,3.27-11.9,4.84-18.03,4.87c-0.22,0-0.44,0-0.65-0.01
	c-12.44-0.15-24.48-6.64-31.16-18.14L378,170.08V252c0,19.88-16.12,36-36,36s-36-16.12-36-36V36.34c0-12.55,6.54-24.75,18.25-31.47
	c5.69-3.27,11.9-4.84,18.03-4.87h0.18c0.16,0,0.31,0,0.47,0.01c12.44,0.15,24.48,6.64,31.16,18.14L432,117.92V36
	c0-19.88,16.12-36,36-36c9.94,0,18.94,4.03,25.46,10.54C499.97,17.06,504,26.06,504,36z"/>
<path class="st0" d="M342.28,0c-6.13,0.03-12.34,1.6-18.03,4.87C312.54,11.59,306,23.79,306,36.34V36c0-19.88,16.12-36,36-36H342.28
	z"/>
<g>
	<path class="st0" d="M283.61,234.06L176.12,47.88l-0.05-0.1c-3.05-5.84-7.75-10.92-13.89-14.46c-17.22-9.95-39.24-4.05-49.18,13.17
		L4.83,233.86C1.56,239.53,0,245.71,0,251.82c0,12.44,6.46,24.54,18.01,31.21c5.08,2.93,10.57,4.49,16.05,4.78
		c1.06,0.13,2.14,0.19,3.23,0.19h213.04c6.8,0.41,13.78-1.1,20.11-4.76C287.65,273.3,293.55,251.28,283.61,234.06z M98.06,216.38
		l46.1-79.85l46.11,79.85H98.06z"/>
</g>
<g>
	<path class="st0" d="M558.46,288.58L558.46,288.58c-19.88,0-36-16.12-36-36V117c0-19.88,16.12-36,36-36h0c19.88,0,36,16.12,36,36
		v135.58C594.46,272.46,578.35,288.58,558.46,288.58z"/>
	<path class="st0" d="M557.28,72.31L557.28,72.31c-19.88,0-36-16.12-36-36V36c0-19.88,16.12-36,36-36l0,0c19.88,0,36,16.12,36,36
		v0.31C593.28,56.19,577.16,72.31,557.28,72.31z"/>
</g>
<path class="st0" d="M504,251.66V252c0,19.88-16.12,36-36,36h-0.28c6.13-0.03,12.34-1.6,18.03-4.87
	C497.46,276.41,504,264.21,504,251.66z"/>
<line class="st1" x1="343" y1="0" x2="468" y2="288"/>
<path class="st0" d="M828,36v216c0,19.88-16.12,36-36,36s-36-16.12-36-36v-90h-72v90c0,19.88-16.12,36-36,36s-36-16.12-36-36V36
	c0-19.88,16.12-36,36-36c9.94,0,18.94,4.03,25.46,10.54c2.59,2.6,4.79,5.58,6.5,8.87c0.28,0.45,0.56,0.9,0.83,1.37L720,88.69
	c13.07-22.64,26.14-45.27,39.21-67.91c0.27-0.47,0.55-0.92,0.83-1.37C766.04,7.88,778.1,0,792,0c9.94,0,18.94,4.03,25.46,10.54
	C823.97,17.06,828,26.06,828,36z"/>
<polygon class="st0" points="720.7,89.9 719.3,89.9 720,88.69 "/>
<polygon class="st0" points="720.7,89.9 719.3,89.9 720,88.69 "/>
<path class="st0" d="M1008,36"/>
<g>
	<path class="st0" d="M1128.94,234.26L1021.45,48.08l-0.05-0.1c-3.05-5.84-7.75-10.92-13.89-14.46
		c-17.22-9.95-39.24-4.05-49.18,13.17L850.16,234.06c-3.27,5.67-4.83,11.85-4.83,17.96c0,12.44,6.46,24.54,18.01,31.21
		c5.08,2.93,10.57,4.49,16.05,4.78c1.06,0.13,2.14,0.19,3.23,0.19h213.04c6.8,0.41,13.78-1.1,20.11-4.76
		C1132.98,273.5,1138.88,251.48,1128.94,234.26z M943.39,216.58l46.1-79.85l46.11,79.85H943.39z"/>
</g>
</svg>
