<?xml version="1.0" encoding="utf-8"?>
<!-- Generator: Adobe Illustrator 27.2.0, SVG Export Plug-In . SVG Version: 6.00 Build 0)  -->
<svg version="1.1" id="Слой_1" xmlns="http://www.w3.org/2000/svg" xmlns:xlink="http://www.w3.org/1999/xlink" x="0px" y="0px"
	 viewBox="0 0 513 126" style="enable-background:new 0 0 513 126;" xml:space="preserve">
<style type="text/css">
	.st0{fill:#901F4B;}
	.st1{fill:#430418;}
	.st2{opacity:0.85;fill:#D31346;}
</style>
<path class="st0" d="M274.17,72c-6.23-10.76-17.85-18-31.17-18h-85.17H153v72h90c19.88,0,36-16.12,36-36
	C279,83.44,277.24,77.3,274.17,72z"/>
<g>
	<path class="st1" d="M157.83,54H153v72h90c19.88,0,36-16.12,36-36c0-6.56-1.76-12.7-4.83-18H189C175.68,72,164.06,64.76,157.83,54z
		"/>
	<path class="st2" d="M279,0h-90c-19.88,0-36,16.12-36,36c0,6.56,1.76,12.7,4.83,18H243c13.32,0,24.94,7.24,31.17,18H279V0z"/>
	<path class="st0" d="M243,54h-85.17c6.23,10.76,17.85,18,31.17,18h85.17C267.94,61.24,256.32,54,243,54z"/>
</g>
<g>
	<path class="st0" d="M387,0c-10.76,0-20.4,4.72-27,12.2c-5.6,6.35-9,14.67-9,23.8v90h18h54V36C423,16.12,406.88,0,387,0z"/>
	<path class="st1" d="M387,0c-10.76,0-20.4,4.72-27,12.2c5.6,6.35,9,14.67,9,23.8v90h54V36C423,16.12,406.88,0,387,0z"/>
	<path class="st2" d="M360,12.2C353.4,4.72,343.76,0,333,0c-19.88,0-36,16.12-36,36v90h54V36C351,26.88,354.4,18.55,360,12.2z"/>
	<path class="st0" d="M360,12.2c-5.6,6.35-9,14.67-9,23.8v90h18V36C369,26.88,365.6,18.55,360,12.2z"/>
</g>
<g>
	<path class="st2" d="M513,36v54c0,19.88-16.12,36-36,36s-36-16.12-36-36V36c0-19.88,16.12-36,36-36S513,16.12,513,36z"/>
</g>
<g>
	<path class="st0" d="M129.55,72c-0.02-0.03-0.03-0.05-0.04-0.08L98.38,18c-0.11-0.2-0.24-0.39-0.36-0.58
		c-0.1-0.16-0.2-0.33-0.3-0.49c-0.21-0.34-0.42-0.67-0.65-1c-0.11-0.16-0.22-0.32-0.33-0.48c-0.23-0.33-0.47-0.67-0.71-0.99
		c-0.1-0.13-0.2-0.26-0.3-0.4c-0.27-0.35-0.55-0.7-0.83-1.04c-0.08-0.09-0.15-0.18-0.23-0.27c-0.32-0.38-0.64-0.75-0.98-1.12
		c-0.04-0.05-0.08-0.09-0.13-0.14c-0.38-0.4-0.76-0.8-1.16-1.19c0,0-0.01-0.01-0.01-0.01c-2.12-2.08-4.53-3.92-7.22-5.47
		c-1.03-0.59-2.08-1.13-3.14-1.61c-0.07-0.03-0.15-0.07-0.22-0.1C81.41,2.92,81,2.75,80.59,2.59c-0.18-0.07-0.36-0.15-0.54-0.22
		c-0.29-0.11-0.58-0.21-0.88-0.32c-0.29-0.1-0.59-0.21-0.88-0.31c-0.17-0.06-0.34-0.1-0.51-0.16c-0.41-0.13-0.82-0.25-1.23-0.36
		c-0.05-0.01-0.11-0.03-0.16-0.04c-2.18-0.58-4.41-0.95-6.67-1.11c-0.04,0-0.08,0-0.12-0.01C69.07,0.04,68.55,0.02,68.03,0
		C67.75,0,67.47,0,67.18,0c-0.28,0-0.55,0-0.83,0c-0.52,0.01-1.04,0.04-1.56,0.07c-0.04,0-0.08,0-0.12,0.01
		c-2.28,0.16-4.54,0.54-6.74,1.13c-0.03,0.01-0.05,0.01-0.08,0.02c-0.44,0.12-0.88,0.25-1.32,0.39c-0.14,0.04-0.28,0.08-0.41,0.13
		c-0.33,0.11-0.66,0.23-0.99,0.34c-0.25,0.09-0.51,0.18-0.76,0.27c-0.22,0.09-0.44,0.18-0.67,0.27c-0.36,0.15-0.73,0.3-1.09,0.46
		c-0.12,0.05-0.24,0.11-0.37,0.17c-0.46,0.21-0.92,0.43-1.37,0.66c-0.04,0.02-0.08,0.04-0.12,0.06c-0.52,0.27-1.04,0.55-1.56,0.85
		c-3.75,2.17-6.97,4.91-9.6,8.06c-0.01,0.02-0.03,0.03-0.04,0.05c-0.35,0.42-0.69,0.85-1.02,1.29c-0.03,0.04-0.06,0.08-0.09,0.12
		c-0.32,0.42-0.62,0.85-0.92,1.28c-0.04,0.05-0.07,0.11-0.11,0.16c-0.3,0.44-0.58,0.88-0.86,1.33c-0.03,0.04-0.05,0.08-0.08,0.13
		C29.85,28.11,29.21,42.18,36.03,54l31.04,53.76c0.02,0.05,0.05,0.11,0.09,0.16c0.01,0.02,0.02,0.04,0.03,0.06
		c0,0.01,0.01,0.01,0.01,0.02c9.94,17.22,31.96,23.12,49.18,13.17C133.59,111.23,139.49,89.22,129.55,72z"/>
	<g>
		<path class="st1" d="M129.55,72c-0.02-0.03-0.03-0.05-0.04-0.08L98.38,18c-0.11-0.2-0.24-0.39-0.36-0.58
			c6.53,10.85,7.12,24.83,0.34,36.58c-0.02,0.03-0.03,0.05-0.05,0.07c-0.02,0.06-0.06,0.12-0.09,0.16l-31.03,53.75
			c0,0.01,0.01,0.01,0.01,0.02c9.94,17.22,31.96,23.12,49.18,13.17C133.59,111.23,139.49,89.22,129.55,72z"/>
		<path class="st2" d="M67.07,107.76L36.03,54c-6.82-11.82-6.18-25.89,0.45-36.77c-0.16,0.26-0.32,0.5-0.47,0.76
			c-0.02,0.03-0.03,0.05-0.05,0.07L4.83,71.99c-9.94,17.22-4.04,39.24,13.18,49.18c17.22,9.93,39.23,4.03,49.18-13.18l0.01-0.01
			c-0.01-0.02-0.02-0.04-0.03-0.06C67.12,107.87,67.09,107.81,67.07,107.76z"/>
		<path class="st0" d="M98.31,54.07c0.02-0.02,0.03-0.04,0.05-0.07c6.78-11.74,6.19-25.72-0.34-36.58c-0.1-0.16-0.2-0.33-0.3-0.49
			c-0.21-0.34-0.42-0.67-0.65-1c-0.11-0.16-0.22-0.32-0.33-0.48c-0.23-0.33-0.47-0.67-0.71-0.99c-0.1-0.13-0.2-0.26-0.3-0.4
			c-0.27-0.35-0.55-0.7-0.83-1.04c-0.08-0.09-0.15-0.18-0.23-0.27c-0.32-0.38-0.64-0.75-0.98-1.12c-0.04-0.05-0.08-0.09-0.13-0.14
			c-0.38-0.4-0.76-0.8-1.16-1.19c0,0-0.01-0.01-0.01-0.01c-2.12-2.08-4.53-3.92-7.22-5.47c-1.03-0.59-2.08-1.13-3.14-1.61
			c-0.07-0.03-0.15-0.07-0.22-0.1C81.41,2.92,81,2.75,80.59,2.59c-0.18-0.07-0.36-0.15-0.54-0.22c-0.29-0.11-0.58-0.21-0.88-0.32
			c-0.29-0.1-0.59-0.21-0.88-0.31c-0.17-0.06-0.34-0.1-0.51-0.16c-0.41-0.13-0.82-0.25-1.23-0.36c-0.05-0.01-0.11-0.03-0.16-0.04
			c-2.18-0.58-4.41-0.95-6.67-1.11c-0.04,0-0.08,0-0.12-0.01C69.07,0.04,68.55,0.02,68.03,0C67.75,0,67.47,0,67.18,0
			c-0.28,0-0.55,0-0.83,0c-0.52,0.01-1.04,0.04-1.56,0.07c-0.04,0-0.08,0-0.12,0.01c-2.28,0.16-4.54,0.54-6.74,1.13
			c-0.03,0.01-0.05,0.01-0.08,0.02c-0.44,0.12-0.88,0.25-1.32,0.39c-0.14,0.04-0.28,0.08-0.41,0.13c-0.33,0.11-0.66,0.23-0.99,0.34
			c-0.25,0.09-0.51,0.18-0.76,0.27c-0.22,0.09-0.44,0.18-0.67,0.27c-0.36,0.15-0.73,0.3-1.09,0.46c-0.12,0.05-0.24,0.11-0.37,0.17
			c-0.46,0.21-0.92,0.43-1.37,0.66c-0.04,0.02-0.08,0.04-0.12,0.06c-0.52,0.27-1.04,0.55-1.56,0.85c-3.75,2.17-6.97,4.91-9.6,8.06
			c-0.01,0.02-0.03,0.03-0.04,0.05c-0.35,0.42-0.69,0.85-1.02,1.29c-0.03,0.04-0.06,0.08-0.09,0.12c-0.32,0.42-0.62,0.85-0.92,1.28
			c-0.04,0.05-0.07,0.11-0.11,0.16c-0.3,0.44-0.58,0.88-0.86,1.33c-0.03,0.04-0.05,0.08-0.08,0.13C29.85,28.11,29.21,42.18,36.03,54
			l31.04,53.76c0.02,0.05,0.05,0.11,0.09,0.16c0.01,0.02,0.02,0.04,0.03,0.06l31.03-53.75C98.25,54.18,98.29,54.13,98.31,54.07z"/>
	</g>
</g>
</svg>
