<?xml version="1.0" encoding="utf-8"?>
<!-- Generator: Adobe Illustrator 27.2.0, SVG Export Plug-In . SVG Version: 6.00 Build 0)  -->
<svg version="1.1" id="Слой_1" xmlns="http://www.w3.org/2000/svg" xmlns:xlink="http://www.w3.org/1999/xlink" x="0px" y="0px"
	 viewBox="0 0 500 500" style="enable-background:new 0 0 500 500;" xml:space="preserve">
<style type="text/css">
	.st0{fill:#430418;}
	.st1{opacity:0.85;fill:#D31346;}
	.st2{opacity:0.85;fill:#88214A;}
</style>
<g>
	<path class="st0" d="M500,359.66C500,437.17,436.67,500,358.55,500c-0.22,0-0.43,0-0.66-0.01V500H0V219.32h357.89v0.01
		c0.22-0.01,0.43-0.01,0.66-0.01C436.67,219.32,500,282.15,500,359.66z"/>
	<path class="st1" d="M0,140.34C0,62.83,63.33,0,141.45,0c0.22,0,0.43,0,0.66,0.01V0H500v280.68H142.11v-0.01
		c-0.22,0.01-0.43,0.01-0.66,0.01C63.33,280.68,0,217.85,0,140.34z"/>
	<path class="st2" d="M475.48,280.68c-25.46-37.04-68.33-61.36-116.93-61.36c-0.22,0-0.43,0-0.66,0.01v-0.01H24.52
		c25.46,37.04,68.33,61.36,116.93,61.36c0.22,0,0.43,0,0.66-0.01v0.01H475.48z"/>
</g>
</svg>
